<?xml version="1.0" encoding="UTF-8"?>
<svg version="1.1" xmlns="http://www.w3.org/2000/svg" width="503" height="496">
<path d="M0 0 C6.27 0 12.54 0 19 0 C19 10.89 19 21.78 19 33 C24.05394493 28.83732106 24.05394493 28.83732106 28.32421875 24.23828125 C32.2494385 19.63924111 36.50212518 15.42310683 40.8125 11.1875 C42.32132992 9.70417862 43.82794327 8.21859824 45.33203125 6.73046875 C45.98921143 6.08489014 46.6463916 5.43931152 47.32348633 4.77416992 C49.18705906 2.901734 49.18705906 2.901734 51 0 C52.97119141 -0.34057617 52.97119141 -0.34057617 55.3515625 -0.29296875 C56.62773437 -0.2784668 56.62773437 -0.2784668 57.9296875 -0.26367188 C58.81914062 -0.23853516 59.70859375 -0.21339844 60.625 -0.1875 C61.97078125 -0.16719727 61.97078125 -0.16719727 63.34375 -0.14648438 C65.56275471 -0.11107473 67.78145176 -0.05726654 70 0 C70 3.96 70 7.92 70 12 C71.32 11.67 72.64 11.34 74 11 C75.12483879 9.15302976 75.12483879 9.15302976 76 7 C78.53456234 3.41776351 81.09615655 0.49654424 85.44445801 -0.63754272 C88.32484856 -0.87520815 91.12622156 -0.89227293 94.015625 -0.82421875 C95.06723816 -0.82380081 96.11885132 -0.82338287 97.20233154 -0.82295227 C99.42130893 -0.81459487 101.64027975 -0.78919826 103.85888672 -0.74780273 C107.22604529 -0.68792598 110.58941854 -0.68621521 113.95703125 -0.69335938 C116.12242324 -0.67793981 118.28779447 -0.6591671 120.453125 -0.63671875 C121.44620667 -0.63540451 122.43928833 -0.63409027 123.46246338 -0.63273621 C134.40321204 -0.37804732 145.326692 3.25382382 153.12890625 11.15625 C161.38082399 20.76069201 164.00134188 30.3340322 163.4375 42.77734375 C162.52674224 53.96701478 157.36702752 62.68568673 149 70 C146.11909562 72.06133676 143.27640632 73.66011161 140 75 C138.24272583 75.76002319 138.24272583 75.76002319 136.44995117 76.53540039 C128.99635362 78.98392317 121.02915924 78.4726544 113.26953125 78.46875 C111.5479864 78.47586104 109.8264439 78.4835614 108.10490417 78.49182129 C104.51168202 78.50521285 100.91867946 78.50685726 97.32543945 78.50097656 C92.72863873 78.49506244 88.13288762 78.52576675 83.53629017 78.56609344 C79.98714045 78.59196918 76.43824433 78.59484844 72.88901329 78.59120178 C71.19417351 78.59289081 69.49932176 78.60251249 67.80457497 78.62034607 C65.43516449 78.64255256 63.0678912 78.63283059 60.69848633 78.61523438 C60.00483978 78.62849762 59.31119324 78.64176086 58.5965271 78.65542603 C53.03700218 78.55978327 50.77222537 76.78924555 47 73 C45.03643603 69.4446899 44.75972711 66.50442375 44.8046875 62.48046875 C44.81113281 61.45888672 44.81757813 60.43730469 44.82421875 59.38476562 C44.84935547 57.80211914 44.84935547 57.80211914 44.875 56.1875 C44.88402344 55.11306641 44.89304687 54.03863281 44.90234375 52.93164062 C44.92584694 50.28753146 44.95870425 47.64388128 45 45 C44.01 45 43.02 45 42 45 C41.7525 45.556875 41.505 46.11375 41.25 46.6875 C39.77075182 49.42410913 38.06532561 51.67650869 36 54 C35.34 54 34.68 54 34 54 C33.67 54.99 33.34 55.98 33 57 C32.29875 57.556875 31.5975 58.11375 30.875 58.6875 C28.47814844 60.61540234 26.72583813 62.37163391 24.75 64.6875 C24.14414063 65.37199219 23.53828125 66.05648437 22.9140625 66.76171875 C20.95198439 69.00052319 20.95198439 69.00052319 19.1484375 71.51953125 C14.22253928 77.55803582 14.22253928 77.55803582 9.95214844 78.40722656 C4.93174202 78.83656085 -0.0033083 78.59112647 -5 78 C-6.9230889 76.0769111 -6.25321838 72.52929515 -6.31640625 69.90234375 C-6.33718735 69.19348526 -6.35796844 68.48462677 -6.37937927 67.75428772 C-6.44494598 65.48212695 -6.5037923 63.20984736 -6.5625 60.9375 C-6.60567849 59.40037817 -6.64929255 57.8632685 -6.69335938 56.32617188 C-6.80063449 52.5509041 -6.90188137 48.7755164 -7 45 C-9.69181275 47.662342 -12.37762147 50.33066667 -15.0625 53 C-16.19075195 54.11568359 -16.19075195 54.11568359 -17.34179688 55.25390625 C-20.86719284 58.76404076 -24.31120831 62.29217575 -27.55859375 66.0625 C-28.41312134 67.02446289 -28.41312134 67.02446289 -29.28491211 68.00585938 C-31.04497034 70.00194991 -31.04497034 70.00194991 -32.66625977 72.25976562 C-35.65853861 75.92685745 -37.7002322 77.7627408 -42.4453125 78.62890625 C-46.49611274 78.78720406 -50.45553641 78.70136831 -54.5 78.5 C-55.90875252 78.4598055 -57.31761586 78.42331518 -58.7265625 78.390625 C-62.15389598 78.29672545 -65.57550125 78.16549622 -69 78 C-69.66 76.68 -70.32 75.36 -71 74 C-70.15695313 73.16855469 -69.31390625 72.33710938 -68.4453125 71.48046875 C-67.33840925 70.38294603 -66.2316457 69.28528241 -65.125 68.1875 C-64.29162109 67.36668945 -64.29162109 67.36668945 -63.44140625 66.52929688 C-62.90644531 65.99755859 -62.37148437 65.46582031 -61.8203125 64.91796875 C-61.32805176 64.43094482 -60.83579102 63.9439209 -60.32861328 63.44213867 C-58.77411511 61.82996499 -58.77411511 61.82996499 -57 59 C-56.34 59 -55.68 59 -55 59 C-54.61328125 58.12601562 -54.61328125 58.12601562 -54.21875 57.234375 C-52.90165983 54.8197097 -51.44911616 53.18259823 -49.5 51.25 C-48.58734375 50.32960938 -48.58734375 50.32960938 -47.65625 49.390625 C-46 48 -46 48 -44 48 C-43.34 46.68 -42.68 45.36 -42 44 C-41.34 44 -40.68 44 -40 44 C-39.773125 43.46375 -39.54625 42.9275 -39.3125 42.375 C-36.49552878 37.2776235 -32.266984 32.92101233 -28 29 C-27.34 29 -26.68 29 -26 29 C-25.34 27.68 -24.68 26.36 -24 25 C-23.34 25 -22.68 25 -22 25 C-21.61714844 24.12710327 -21.61714844 24.12710327 -21.2265625 23.23657227 C-19.87583737 20.77359597 -18.38452615 19.17208019 -16.375 17.21484375 C-15.66859375 16.51939453 -14.9621875 15.82394531 -14.234375 15.10742188 C-13.12835938 14.03331055 -13.12835938 14.03331055 -12 12.9375 C-10.53943012 11.51140161 -9.08100233 10.08310516 -7.625 8.65234375 C-6.97789062 8.02320068 -6.33078125 7.39405762 -5.6640625 6.74584961 C-3.8083697 4.89948066 -3.8083697 4.89948066 -2 2 C-1.34 2 -0.68 2 0 2 C0 1.34 0 0.68 0 0 Z M70 25 C70 34.24 70 43.48 70 53 C77.338954 53.04197686 84.67747146 53.08204327 92.01644135 53.10350037 C95.43427178 53.11404747 98.8520025 53.12813473 102.26977539 53.15087891 C106.19416081 53.17683004 110.11850596 53.18648505 114.04296875 53.1953125 C115.26396774 53.20563507 116.48496674 53.21595764 117.7429657 53.22659302 C118.8837709 53.22674408 120.02457611 53.22689514 121.19995117 53.22705078 C122.7021949 53.23371262 122.7021949 53.23371262 124.23478699 53.24050903 C130.09194523 52.73107289 133.12744657 50.30283715 137 46 C138.85618207 42.28763586 138.44809981 38.05156912 138 34 C135.76801481 29.4533635 133.48775316 27.23796824 129 25 C126.11658597 24.57019359 126.11658597 24.57019359 123.01635742 24.65942383 C121.83551071 24.65965042 120.654664 24.65987701 119.43803406 24.66011047 C118.17328751 24.67559433 116.90854095 24.69107819 115.60546875 24.70703125 C113.65173088 24.71339851 113.65173088 24.71339851 111.65852356 24.71989441 C108.20767733 24.73130988 104.75721417 24.76074783 101.30651855 24.79400635 C97.78057123 24.82477892 94.25455974 24.83857977 90.72851562 24.85351562 C83.81867288 24.88402715 76.90987997 24.94275337 70 25 Z " fill="#F7F7F7" transform="translate(205,209)"/>
<path d="M0 0 C0.99 0 1.98 0 3 0 C3 0.66 3 1.32 3 2 C3.83682816 1.83799606 4.67365631 1.67599213 5.5358429 1.50907898 C9.21605288 0.96824971 12.70704761 0.86570795 16.42651367 0.85473633 C17.14433517 0.85137772 17.86215668 0.8480191 18.60173035 0.84455872 C20.95716107 0.83511534 23.31252032 0.83310951 25.66796875 0.83203125 C27.31130502 0.82881603 28.95464101 0.82545176 30.59797668 0.82194519 C34.03334213 0.81597193 37.46868247 0.81410363 40.90405273 0.81469727 C45.30919219 0.81479924 49.71417174 0.80110289 54.11927319 0.78392506 C57.50869999 0.77282214 60.89808777 0.77077746 64.2875309 0.77130699 C65.91226062 0.770126 67.53699132 0.76569753 69.16170311 0.75797462 C71.42847432 0.74820133 73.69489331 0.75104115 75.96166992 0.75708008 C77.8964344 0.75494255 77.8964344 0.75494255 79.87028503 0.75276184 C83 1 83 1 86 3 C82.19332427 4.21801916 78.40325988 4.16199962 74.44921875 4.17700195 C73.31681259 4.18685875 73.31681259 4.18685875 72.16152954 4.19691467 C69.67018528 4.2165826 67.17890096 4.22829244 64.6875 4.23828125 C63.83562103 4.24235678 62.98374207 4.2464323 62.10604858 4.25063133 C57.60162602 4.27145902 53.09723368 4.28577796 48.59277344 4.29516602 C43.938664 4.30625546 39.28502937 4.34069357 34.63108826 4.38033772 C31.05203347 4.40645244 27.4730931 4.41485298 23.89395142 4.41844749 C22.17791518 4.42332266 20.46188436 4.43496306 18.74594116 4.45348549 C16.34716728 4.47778024 13.94963995 4.47693083 11.55078125 4.4699707 C10.48774277 4.48918579 10.48774277 4.48918579 9.40322876 4.50878906 C5.89738219 4.47168062 4.27975574 4.22967083 1.52807617 1.97062683 C1.02381104 1.32031998 0.5195459 0.67001312 0 0 Z " fill="#929292" transform="translate(254,283)"/>
<path d="M0 0 C0.66 0 1.32 0 2 0 C2 0.99 2 1.98 2 3 C0.06640625 4.71875 0.06640625 4.71875 -2.4375 6.5 C-6.14968451 9.02553584 -6.14968451 9.02553584 -8 13 C-8.66 13 -9.32 13 -10 13 C-10.66 14.32 -11.32 15.64 -12 17 C-12.66 17 -13.32 17 -14 17 C-14.33 17.66 -14.66 18.32 -15 19 C-15.66 18.67 -16.32 18.34 -17 18 C-16.01 16.515 -16.01 16.515 -15 15 C-14.34 15 -13.68 15 -13 15 C-12.7421875 14.41734375 -12.484375 13.8346875 -12.21875 13.234375 C-10.90165983 10.8197097 -9.44911616 9.18259823 -7.5 7.25 C-6.8915625 6.63640625 -6.283125 6.0228125 -5.65625 5.390625 C-4 4 -4 4 -2 4 C-1.34 2.68 -0.68 1.36 0 0 Z " fill="#A8A8A8" transform="translate(163,253)"/>
<path d="M0 0 C2.475 0.99 2.475 0.99 5 2 C3.85981998 5.42054006 3.07541482 6.2426201 0 8 C-2.25 7.6875 -2.25 7.6875 -4 7 C-3.43628586 3.73045798 -2.50037734 2.17424117 0 0 Z " fill="#EAEAEA" transform="translate(231,264)"/>
<path d="M0 0 C0.66 1.32 1.32 2.64 2 4 C1.01 4.66 0.02 5.32 -1 6 C-0.67 6.66 -0.34 7.32 0 8 C-2.90600261 9.25664978 -4.79604584 10 -8 10 C-8 9.34 -8 8.68 -8 8 C-6.52295788 6.74772516 -5.04172601 5.49833478 -3.5078125 4.31640625 C-1.73237056 2.88235909 -1.73237056 2.88235909 0 0 Z " fill="#BBBBBB" transform="translate(177,238)"/>
<path d="M0 0 C0.33 0.99 0.66 1.98 1 3 C0.01 3 -0.98 3 -2 3 C-2.33 3.66 -2.66 4.32 -3 5 C-4.32 4.34 -5.64 3.68 -7 3 C-2.25 0 -2.25 0 0 0 Z " fill="#E3E3E3" transform="translate(257,213)"/>
<path d="M0 0 C1.32 0 2.64 0 4 0 C3.25 4.75 3.25 4.75 1 7 C0.34 5.02 -0.32 3.04 -1 1 C-0.67 0.67 -0.34 0.34 0 0 Z " fill="#C9C9C9" transform="translate(361,262)"/>
</svg>
